
<svg xmlns="http://www.w3.org/2000/svg" viewBox="0 0 400 300" preserveAspectRatio="none"><g data-name="Layer 2"><path d="M234.68 0h.87a60.72 60.72 0 007.9.85c3.61 0 7.21-.54 10.81-.85h1.3L264 1.16c0-.1 0 .4-.06 1h2.51c3.11 0 6.24-.07 9.35.06 2.22.09 4.42.72 6.62.65 2.7-.09 5.37-.76 8.08-1 4.34-.39 8.81-.13 13-1.07 5.61-1.25 10.7 1.63 16.12 1.1.06 0 .14 0 .21.05 4 .14 8 .46 12.06.37 3.28-.08 6.56-1 9.83-.94 4.18 0 8.48-1.23 12.56.75a3.78 3.78 0 001.51.06h10.74c2.87 0 5.73-.13 8.6-.24.56 0 1.1-.3 1.66-.37 1.31-.17 2.63-.22 3.92-.43 1.98-.35 3.89-.77 5.8-1.15h.87a15.83 15.83 0 0011.4.46c0 1.83.09 3.35 0 4.85-.27 3.79-.58 7.58-1 11.35-.15 1.35-.72 2.65-1 4a14 14 0 00-.42 3.67c.21 2.38.73 4.73 1 7.1.46 3.64.93 7.29 1.2 10.95.18 2.43.71 5.16-.14 7.28-2.14 5.37-.38 10.79-.93 16.14-.36 3.5.79 7.21.13 10.61-1.1 5.66.05 11.09.47 16.61.4 5.27 1 10.52 1.45 15.79a6.2 6.2 0 010 1.49 34.07 34.07 0 00-.73 5.62 27.44 27.44 0 001.2 5.25v.83a22.68 22.68 0 00-1.17 13c.36 1.81.78 3.62 1.17 5.42v1.29c-.31 1.34-1 2.73-.87 4 .37 3.15-.85 6.15-.26 9.41.69 3.89.2 8 .16 12 0 2.4-.29 4.79-.25 7.19.06 4 .61 8.06.37 12.05-.34 5.9.16 11.82-1.2 17.71a18.55 18.55 0 00.58 8.85c1.37 4.94.83 9.85.55 14.76-.31 5.47-1.28 10.9-1.62 16.37-.25 4.09 1.3 8.05.76 12.31-.51 4.09.3 8.33.46 12.52.09 2.45 0 4.91.06 7.37 0 2.3.33 4.61.19 6.89-.26 4.42-.78 8.83-1.11 13.25-.13 1.77-.88 2.77-2.73 2.77-4.12 0-8.23.06-12.34 0-2.47 0-4.95-.29-7.42-.47a77.16 77.16 0 00-7.71-.59c-2 .05-4.06.79-6.11 1.06a55.26 55.26 0 01-14.81-.27c-3.74-.52-7.59-.37-11.33-.92a30 30 0 00-11.67.77 8.37 8.37 0 01-1.94 0c-4.15 0-8.3-.15-12.45-.09-4.44.08-8.86.39-13.3.47-2.31 0-4.63-.17-6.94-.33-3.8-.26-7.6-.54-11.39-.9-.58-.06-1.1-.61-1.67-.92a6.25 6.25 0 00-6.33.41 5 5 0 01-5.28 1.09 3.89 3.89 0 00-1.89-.13 31.2 31.2 0 01-3.82.78c-2.65.05-5.31-.24-8-.21-4.37 0-8.75.37-13.13.3-5.71-.1-11.41 0-17.11-1.13a20.23 20.23 0 00-9 .57c-5 1.37-10 .83-15 .56-5.48-.3-10.93-1.28-16.41-1.6-4.3-.25-8.54 1.76-12.93.63-.12 0-.27.11-.41.11-5.11.28-10.22.72-15.33.78-4.54.05-9.07-.3-13.61-.5-4.82-.21-9.74.05-14.42-.84-5.69-1.07-11.13.05-16.66.46-4.92.36-9.82 1.08-14.75 1.4-4 .26-7.7-1.71-11.8-1.49s-8.19-.54-12.27-.38c-6 .23-11.88.91-17.83 1.37a8.08 8.08 0 01-1.67-.23 85.83 85.83 0 00-9.76-1.29c-4.51-.1-9 .33-13.53.54-.36 0-.81-.12-1.07 0-2.58 1.57-5.45.53-8.14 1-1.12.19-2.3 1-3.29.77-3.88-.86-7.69-2.13-11.6-.68 0-1.84-.1-3.42 0-5 .25-3.36.7-6.71.9-10.08.11-2-.11-3.93 1.24-5.67a3.31 3.31 0 00.43-2.23c-.36-3.08-1-6.13-1.27-9.21-.51-5.38-.86-10.77-1.25-16.16a4.9 4.9 0 01.22-1.24 44.63 44.63 0 001-5.55c.17-2.87 0-5.76 0-8.63v-1.72c-.12-3.54-.88-7.22-.21-10.61 1.11-5.66-.07-11.09-.5-16.61-.39-5-1.08-10-1.39-14.94-.23-3.71 1.86-7.13 1.5-11-.28-3 .57-6 .58-9a79.74 79.74 0 00-.62-9.39A27.23 27.23 0 00.49 158c.18-5.28.38-10.64.54-16 .05-1.69 0-3.38-.05-5.06-.11-2.44-.38-4.84-.41-7.25 0-4.14 0-8.28.05-12.43 0-.41-.24-.82-.26-1.24a16.69 16.69 0 01-.13-3.45A50.69 50.69 0 000 94.69l2.17-.19c-.32-2.74-.28-5.42-1-7.9-1.36-4.92-.74-9.84-.46-14.76.16-3 .91-6 1.22-9A69.83 69.83 0 002.32 55c0-3.81-1.83-7.54-.62-11.44a1.23 1.23 0 000-.42C1.36 34.38.86 25.59.82 16.79A111.77 111.77 0 012 2.92C2.13 2.13 3.16.83 3.79.81 8.18.7 12.59.81 17 1c2.61.09 5.21.54 7.82.6 3.93.08 8 .55 11.77-.22 5-1 10-.73 15-.43 5.63.34 11.23 1.27 16.86 1.57 4 .21 7.89-1.2 12.07-.73s8.77-.3 13.16-.46c2.42-.1 4.85-.05 7.28-.08s4.67-.26 7-.12c4.35.25 8.69.69 13 1.08a4.11 4.11 0 012 .52c2 1.49 4 1.25 6.14.53a11.57 11.57 0 012.49-.65c6.71-.59 13.53-.65 20.13-1.83 5.62-1 10.7 1.66 16.12 1.13.06 0 .14.05.21.05 4 .14 8 .46 12.05.36 3.29-.08 6.56-.95 9.84-.93 4.18 0 8.48-1.22 12.56.75a3.77 3.77 0 001.51.06h10.08c3.08 0 6.17-.13 9.25-.24.56 0 1.1-.3 1.66-.37 1.31-.17 2.63-.22 3.92-.43 1.94-.36 3.85-.78 5.76-1.16z" data-name="Layer 1"/></g></svg>